<?xml version="1.0" encoding="utf-8"?>
<svg xmlns="http://www.w3.org/2000/svg" width="658" height="244" viewBox="12 -1 164.5 61" preserveAspectRatio="xMidYMid meet" shape-rendering="geometricPrecision" color-rendering="optimizeQuality" role="img" aria-labelledby="title desc">
  <title id="title">SystemRDL logo</title>
  <desc id="desc">SystemRDL wordmark with blue, red, and green diamonds and TM mark.</desc>
  <g fill="#000000">
    <path d="M 17.918 36.264 C 16.674 36.264 15.566 36.156 14.593 35.941 C 13.619 35.727 12.778 35.46 12.068 35.141 L 12.82 31.654 L 13.23 31.654 C 13.901 32.266 14.689 32.74 15.594 33.075 C 16.499 33.41 17.472 33.578 18.514 33.578 C 19.581 33.578 20.366 33.433 20.867 33.144 C 21.368 32.854 21.619 32.439 21.619 31.898 C 21.619 31.697 21.578 31.522 21.497 31.376 C 21.416 31.229 21.258 31.085 21.023 30.941 C 20.789 30.798 20.468 30.657 20.062 30.517 C 19.655 30.377 19.129 30.215 18.484 30.033 C 17.775 29.838 17.138 29.626 16.575 29.398 C 16.012 29.171 15.532 28.9 15.135 28.588 C 14.738 28.269 14.437 27.901 14.231 27.484 C 14.026 27.068 13.924 26.57 13.924 25.99 C 13.924 24.532 14.567 23.368 15.853 22.499 C 17.138 21.63 18.898 21.195 21.131 21.195 C 22.205 21.195 23.219 21.283 24.173 21.459 C 25.127 21.635 25.936 21.872 26.6 22.172 L 25.887 25.521 L 25.486 25.521 C 24.979 25.053 24.31 24.66 23.479 24.345 C 22.649 24.029 21.743 23.871 20.76 23.871 C 19.796 23.871 19.051 24.011 18.523 24.291 C 17.996 24.571 17.732 24.958 17.732 25.453 C 17.732 25.681 17.771 25.87 17.85 26.02 C 17.928 26.169 18.087 26.316 18.328 26.459 C 18.536 26.589 18.865 26.731 19.314 26.884 C 19.764 27.037 20.291 27.195 20.896 27.357 C 22.524 27.794 23.686 28.305 24.383 28.891 C 25.079 29.477 25.428 30.271 25.428 31.273 C 25.428 32.113 25.239 32.852 24.861 33.49 C 24.484 34.128 23.963 34.646 23.299 35.043 C 22.602 35.466 21.811 35.775 20.926 35.971 C 20.04 36.166 19.038 36.264 17.918 36.264 Z M 30.643 40.023 L 26.785 40.023 L 29.578 35.785 L 27.771 25.033 L 31.365 25.033 L 32.313 32.221 L 36.492 25.033 L 40.203 25.033 L 30.643 40.023 Z M 43.846 36.303 C 42.908 36.303 42 36.215 41.121 36.039 C 40.242 35.863 39.568 35.658 39.1 35.424 L 39.773 32.533 L 40.096 32.533 C 40.239 32.657 40.42 32.794 40.638 32.943 C 40.856 33.093 41.167 33.249 41.57 33.412 C 41.915 33.562 42.316 33.69 42.771 33.798 C 43.227 33.905 43.719 33.959 44.246 33.959 C 45.034 33.959 45.625 33.868 46.019 33.686 C 46.412 33.503 46.609 33.243 46.609 32.904 C 46.609 32.644 46.469 32.445 46.189 32.309 C 45.91 32.172 45.33 32.003 44.451 31.801 C 42.96 31.456 41.94 31.039 41.39 30.551 C 40.84 30.063 40.564 29.454 40.564 28.725 C 40.564 27.488 41.118 26.513 42.225 25.8 C 43.331 25.087 44.829 24.73 46.717 24.73 C 47.537 24.73 48.357 24.813 49.178 24.979 C 49.998 25.146 50.6 25.323 50.984 25.512 L 50.34 28.285 L 50.037 28.285 C 49.575 27.927 49.017 27.636 48.362 27.411 C 47.708 27.187 47.036 27.074 46.346 27.074 C 45.597 27.074 45.022 27.164 44.622 27.343 C 44.222 27.522 44.021 27.797 44.021 28.168 C 44.021 28.454 44.194 28.674 44.539 28.827 C 44.884 28.98 45.428 29.138 46.17 29.301 C 47.55 29.6 48.545 29.978 49.153 30.434 C 49.762 30.889 50.066 31.527 50.066 32.348 C 50.066 33.572 49.507 34.537 48.387 35.243 C 47.267 35.95 45.753 36.303 43.846 36.303 Z M 55.691 36.215 C 54.474 36.215 53.605 36.015 53.084 35.614 C 52.563 35.214 52.303 34.62 52.303 33.832 C 52.303 33.624 52.319 33.422 52.352 33.227 C 52.384 33.031 52.426 32.803 52.479 32.543 L 53.67 27.348 L 52.225 27.348 L 52.762 25.033 L 54.207 25.033 L 54.93 21.898 L 58.455 21.898 L 57.732 25.033 L 61.033 25.033 L 60.496 27.348 L 57.195 27.348 L 56.287 31.303 C 56.222 31.576 56.16 31.851 56.102 32.128 C 56.043 32.405 56.014 32.641 56.014 32.836 C 56.014 33.227 56.123 33.498 56.341 33.651 C 56.559 33.804 56.896 33.881 57.352 33.881 C 57.534 33.881 57.773 33.847 58.069 33.778 C 58.366 33.71 58.602 33.633 58.777 33.549 L 59.07 33.549 L 58.523 35.902 C 58.126 36 57.708 36.076 57.269 36.132 C 56.829 36.187 56.303 36.215 55.691 36.215 Z M 69.471 29.105 C 69.49 28.988 69.505 28.881 69.515 28.783 C 69.524 28.686 69.529 28.585 69.529 28.48 C 69.529 27.966 69.37 27.572 69.051 27.299 C 68.732 27.025 68.273 26.889 67.674 26.889 C 66.951 26.889 66.344 27.084 65.853 27.475 C 65.361 27.865 64.988 28.409 64.734 29.105 L 69.471 29.105 Z M 66.785 36.293 C 64.917 36.293 63.475 35.88 62.459 35.053 C 61.443 34.226 60.936 33.083 60.936 31.625 C 60.936 30.629 61.102 29.714 61.434 28.881 C 61.766 28.048 62.244 27.315 62.869 26.684 C 63.468 26.072 64.217 25.587 65.115 25.229 C 66.014 24.87 67 24.691 68.074 24.691 C 69.708 24.691 70.94 25.022 71.771 25.683 C 72.601 26.343 73.016 27.318 73.016 28.607 C 73.016 29.05 72.972 29.483 72.884 29.906 C 72.796 30.329 72.68 30.749 72.537 31.166 L 64.393 31.166 C 64.393 31.205 64.393 31.243 64.393 31.278 C 64.393 31.314 64.393 31.352 64.393 31.391 C 64.393 32.152 64.66 32.748 65.193 33.178 C 65.727 33.607 66.544 33.822 67.645 33.822 C 68.413 33.822 69.14 33.692 69.827 33.432 C 70.514 33.171 71.111 32.882 71.619 32.563 L 72.01 32.563 L 71.355 35.385 C 70.672 35.684 69.952 35.91 69.197 36.063 C 68.442 36.216 67.638 36.293 66.785 36.293 Z M 93.65 27.475 C 93.65 27.676 93.636 27.895 93.606 28.129 C 93.577 28.363 93.533 28.607 93.475 28.861 L 91.824 36 L 88.27 36 L 89.539 30.521 C 89.624 30.144 89.7 29.783 89.769 29.438 C 89.837 29.092 89.871 28.813 89.871 28.598 C 89.871 28.22 89.767 27.943 89.559 27.768 C 89.35 27.592 88.979 27.504 88.445 27.504 C 88.191 27.504 87.903 27.564 87.581 27.685 C 87.259 27.805 86.87 27.986 86.414 28.227 L 84.617 36 L 81.063 36 L 82.332 30.521 C 82.404 30.202 82.475 29.857 82.547 29.486 C 82.618 29.115 82.654 28.832 82.654 28.637 C 82.654 28.24 82.555 27.951 82.356 27.772 C 82.158 27.593 81.788 27.504 81.248 27.504 C 80.968 27.504 80.662 27.569 80.33 27.699 C 79.998 27.829 79.624 28.005 79.207 28.227 L 77.41 36 L 73.875 36 L 76.414 25.033 L 79.949 25.033 L 79.666 26.244 C 80.382 25.769 81.028 25.398 81.604 25.131 C 82.181 24.864 82.804 24.73 83.475 24.73 C 84.197 24.73 84.806 24.892 85.301 25.214 C 85.796 25.536 86.141 26.01 86.336 26.635 C 87.208 26.003 87.99 25.528 88.68 25.209 C 89.37 24.89 90.037 24.73 90.682 24.73 C 91.645 24.73 92.381 24.968 92.889 25.443 C 93.396 25.919 93.65 26.596 93.65 27.475 Z M 109.832 25.121 C 109.832 26.286 109.477 27.266 108.768 28.061 C 108.058 28.855 107.094 29.454 105.877 29.857 L 109.236 36 L 105.047 36 L 102.313 30.668 L 100.203 30.668 L 98.973 36 L 95.223 36 L 98.582 21.459 L 104.256 21.459 C 106.033 21.459 107.407 21.76 108.377 22.362 C 109.347 22.965 109.832 23.884 109.832 25.121 Z M 105.789 25.746 C 105.789 25.16 105.602 24.745 105.228 24.501 C 104.853 24.257 104.301 24.135 103.572 24.135 L 101.717 24.135 L 100.809 28.051 L 102.654 28.051 C 103.65 28.051 104.422 27.847 104.969 27.44 C 105.516 27.034 105.789 26.469 105.789 25.746 Z M 126.531 27.133 C 126.531 28.78 126.098 30.3 125.232 31.693 C 124.367 33.087 123.257 34.154 121.902 34.896 C 121.082 35.339 120.226 35.634 119.334 35.78 C 118.442 35.927 117.374 36 116.131 36 L 110.867 36 L 114.227 21.459 L 118.934 21.459 C 120.32 21.459 121.437 21.566 122.283 21.781 C 123.13 21.996 123.813 22.286 124.334 22.65 C 125.05 23.145 125.595 23.762 125.97 24.501 C 126.344 25.24 126.531 26.117 126.531 27.133 Z M 122.605 27.475 C 122.605 26.811 122.482 26.239 122.234 25.761 C 121.987 25.282 121.609 24.896 121.102 24.604 C 120.867 24.473 120.628 24.374 120.384 24.306 C 120.14 24.237 119.861 24.187 119.549 24.154 C 119.249 24.128 118.908 24.115 118.523 24.115 C 118.139 24.115 117.804 24.115 117.518 24.115 L 117.391 24.115 L 115.242 33.334 L 115.584 33.334 C 115.962 33.334 116.365 33.334 116.795 33.334 C 117.225 33.334 117.573 33.318 117.84 33.285 C 118.185 33.253 118.496 33.201 118.772 33.129 C 119.049 33.057 119.354 32.937 119.686 32.768 C 120.623 32.286 121.344 31.566 121.849 30.609 C 122.353 29.652 122.605 28.607 122.605 27.475 Z M 137.967 36 L 127.469 36 L 130.828 21.459 L 134.598 21.459 L 131.893 33.188 L 138.621 33.188 L 137.967 36 Z"/>
    <path d="M156.697265625 13.1533203125H155.138671875V17.0H154.55859375V13.1533203125H153.0V12.6376953125H156.697265625ZM161.16796875 17.0H160.587890625V13.2412109375L159.375 15.798828125H159.029296875L157.8251953125 13.2412109375V17.0H157.283203125V12.6376953125H158.07421875L159.2373046875 15.06640625L160.3623046875 12.6376953125H161.16796875Z" transform="translate(14 0)"/>
  </g>
  <g stroke="#ffffff" stroke-width="2" stroke-linejoin="miter" transform="translate(14 0)">
    <path fill="#00468B" d="M132 0 L146.5 14.5 L132 29 L117.5 14.5 Z"/>
    <path fill="#E52125" d="M147 15 L161.5 29.5 L147 44 L132.5 29.5 Z"/>
    <path fill="#08AA3E" d="M132 30 L146.5 44.5 L132 59 L117.5 44.5 Z"/>
  </g>
</svg>
